# xmcd
#
# Track frame offsets: 
#        150
#        15787
#        27695
#        43177
#        57305
#        74157
#        90490
#        109070
#        119585
#        141117
#        158042
#        174525
#        191792
#
# Disc length: 2758 seconds
#
# Revision: 2
# Processed by: cddbd v1.5.1PL2 Copyright (c) Steve Scherf et al.
# Submitted via: ExactAudioCopy v0.90b3
#
DISCID=b90ac40d
DTITLE=Anson Funderburgh and Sam Myers - That's What They Want
DYEAR=1997
DGENRE=Blues
TTITLE0=Lookin' The World Over
TTITLE1=Oh-Oh
TTITLE2=The Last Time Around
TTITLE3=Monkey Around
TTITLE4=That's What They Want
TTITLE5=The Dew Is Falling
TTITLE6=Mudslide
TTITLE7=I Don't Play
TTITLE8=I Don't Want You Cutting Off Your Hair
TTITLE9=Don't Quit The One You Love For Me
TTITLE10=I've Been Dogged By Women
TTITLE11=The Meanest Woman
TTITLE12=I'm Shakin'
EXTD=
EXTT0=
EXTT1=
EXTT2=
EXTT3=
EXTT4=
EXTT5=
EXTT6=
EXTT7=
EXTT8=
EXTT9=
EXTT10=
EXTT11=
EXTT12=
PLAYORDER=
